<svg width="15" height="20" viewBox="0 0 15 20" fill="none" xmlns="http://www.w3.org/2000/svg">
<path d="M13.6799 0H4.32862C4.19978 0.00651418 4.07672 0.0543435 3.97804 0.136152L0.147865 3.92024C0.0533033 4.00898 -0.000178421 4.13204 4.4723e-07 4.26062V18.4604C0.00131215 19.1547 0.572857 19.7173 1.27832 19.7186H13.6799C14.377 19.7174 14.9452 19.1676 14.9582 18.4815V1.25823C14.9569 0.563858 14.3853 0.0012911 13.6799 0ZM8.79319 0.938981H11.5955V5.3428L10.601 3.78174C10.5606 3.71566 10.5045 3.66032 10.4373 3.62071C10.2114 3.48732 9.91845 3.55938 9.78293 3.78174L8.79319 5.33576V0.938981ZM3.84687 1.608V2.91553C3.84556 3.396 3.4502 3.78515 2.96207 3.78644H1.63367L3.84687 1.608ZM13.9947 18.4697C13.9934 18.6404 13.8532 18.7783 13.6799 18.7796H1.27832C1.27587 18.7797 1.27343 18.7797 1.27098 18.7797C1.09581 18.781 0.952774 18.6422 0.951582 18.4697V4.73481H2.96207C3.9818 4.73223 4.80775 3.91925 4.81038 2.91553V0.938981H7.82968V5.73248C7.82765 5.94398 7.89825 6.14991 8.03001 6.31699C8.2304 6.56782 8.5699 6.66665 8.87666 6.56347L8.91243 6.55174C9.14013 6.45766 9.33027 6.29275 9.45381 6.08225L10.1955 4.90852L10.9372 6.08225C11.0608 6.29275 11.2509 6.45766 11.4786 6.55174C11.7931 6.67386 12.1518 6.57844 12.361 6.31699C12.4928 6.14991 12.5634 5.94398 12.5614 5.73248V0.938981H13.6799C13.8523 0.940213 13.9921 1.07683 13.9947 1.2465V18.4697Z" fill="white"/>
<path d="M11.6812 15.681H3.27435C3.01093 15.681 2.79736 15.8912 2.79736 16.1505C2.79736 16.4098 3.01093 16.62 3.27435 16.62H11.6812C11.9446 16.62 12.1582 16.4098 12.1582 16.1505C12.1582 15.8912 11.9446 15.681 11.6812 15.681Z" fill="white"/>
<path d="M11.6812 13.3688H3.27435C3.01093 13.3688 2.79736 13.579 2.79736 13.8383C2.79736 14.0975 3.01093 14.3078 3.27435 14.3078H11.6812C11.9446 14.3078 12.1582 14.0975 12.1582 13.8383C12.1582 13.579 11.9446 13.3688 11.6812 13.3688Z" fill="white"/>
<path d="M11.6812 11.0565H3.27435C3.01093 11.0565 2.79736 11.2667 2.79736 11.526C2.79736 11.7853 3.01093 11.9955 3.27435 11.9955H11.6812C11.9446 11.9955 12.1582 11.7853 12.1582 11.526C12.1582 11.2667 11.9446 11.0565 11.6812 11.0565Z" fill="white"/>
<path d="M11.6812 8.74426H3.27435C3.01093 8.74426 2.79736 8.95448 2.79736 9.21375C2.79736 9.47303 3.01093 9.68324 3.27435 9.68324H11.6812C11.9446 9.68324 12.1582 9.47303 12.1582 9.21375C12.1582 8.95448 11.9446 8.74426 11.6812 8.74426Z" fill="white"/>
</svg>
