<svg width="24" height="24" viewBox="0 0 24 24" fill="none" xmlns="http://www.w3.org/2000/svg">
<path d="M18.5 9.5V14.5M12 14.5C12.663 14.5 13.2989 14.2366 13.7678 13.7678C14.2366 13.2989 14.5 12.663 14.5 12C14.5 11.337 14.2366 10.7011 13.7678 10.2322C13.2989 9.76339 12.663 9.5 12 9.5C11.337 9.5 10.7011 9.76339 10.2322 10.2322C9.76339 10.7011 9.5 11.337 9.5 12C9.5 12.663 9.76339 13.2989 10.2322 13.7678C10.7011 14.2366 11.337 14.5 12 14.5ZM5 22C6.06087 22 7.07828 21.5786 7.82843 20.8284C8.57857 20.0783 9 19.0609 9 18C9 16.9391 8.57857 15.9217 7.82843 15.1716C7.07828 14.4214 6.06087 14 5 14C3.93913 14 2.92172 14.4214 2.17157 15.1716C1.42143 15.9217 1 16.9391 1 18C1 19.0609 1.42143 20.0783 2.17157 20.8284C2.92172 21.5786 3.93913 22 5 22V22Z" stroke="white" stroke-width="1.5" stroke-miterlimit="10" stroke-linecap="round" stroke-linejoin="round"/>
<path d="M5.25 16.75V17.68C5.25 18.03 5.07 18.36 4.76 18.54L4 19" stroke="white" stroke-width="1.5" stroke-miterlimit="10" stroke-linecap="round" stroke-linejoin="round"/>
<path d="M2 15.2V9C2 5.5 4 4 7 4H17C20 4 22 5.5 22 9V15C22 18.5 20 20 17 20H8.5" stroke="white" stroke-width="1.5" stroke-miterlimit="10" stroke-linecap="round" stroke-linejoin="round"/>
</svg>
