<svg width="24" height="24" viewBox="0 0 24 24" fill="none" xmlns="http://www.w3.org/2000/svg">
<path d="M19.3 7.92002V13.07C19.3 16.15 17.54 17.47 14.9 17.47H6.10996C5.65996 17.47 5.22996 17.43 4.82996 17.34C4.57996 17.3 4.33996 17.23 4.11996 17.15C2.61996 16.59 1.70996 15.29 1.70996 13.07V7.92002C1.70996 4.84002 3.46996 3.52002 6.10996 3.52002H14.9C17.14 3.52002 18.75 4.47002 19.18 6.64002C19.25 7.04002 19.3 7.45002 19.3 7.92002Z" stroke="white" stroke-width="1.5" stroke-miterlimit="10" stroke-linecap="round" stroke-linejoin="round"/>
<path d="M22.3011 10.92V16.07C22.3011 19.15 20.5411 20.47 17.9011 20.47H9.11105C8.37105 20.47 7.70105 20.37 7.12105 20.15C5.93105 19.71 5.12105 18.8 4.83105 17.34C5.23105 17.43 5.66105 17.47 6.11105 17.47H14.9011C17.5411 17.47 19.3011 16.15 19.3011 13.07V7.92001C19.3011 7.45001 19.2611 7.03001 19.1811 6.64001C21.0811 7.04001 22.3011 8.38001 22.3011 10.92V10.92Z" stroke="white" stroke-width="1.5" stroke-miterlimit="10" stroke-linecap="round" stroke-linejoin="round"/>
<path d="M4.77979 8.29999V12.7M16.2218 8.29999V12.7M10.4978 13.14C11.198 13.14 11.8695 12.8618 12.3645 12.3667C12.8596 11.8717 13.1378 11.2002 13.1378 10.5C13.1378 9.79981 12.8596 9.12832 12.3645 8.63322C11.8695 8.13813 11.198 7.85999 10.4978 7.85999C9.79761 7.85999 9.12612 8.13813 8.63102 8.63322C8.13593 9.12832 7.85778 9.79981 7.85778 10.5C7.85778 11.2002 8.13593 11.8717 8.63102 12.3667C9.12612 12.8618 9.79761 13.14 10.4978 13.14V13.14Z" stroke="white" stroke-width="1.5" stroke-miterlimit="10" stroke-linecap="round" stroke-linejoin="round"/>
</svg>
